<svg xmlns="http://www.w3.org/2000/svg" width="2381" height="1256" viewBox="0 0 2381 1256" fill="none">
  <path d="M0.874274 1157.39C-3.07123 1134.12 10.3499 792.353 134.69 509.372C246.304 255.714 505.856 111.145 809.633 293.458C1135.12 488.852 1415.87 508.501 1642.25 451.503C1865.67 394.993 2014.25 224.722 2080.97 116.147C2225.79 -118.485 2439.72 26.647 2364.58 335.355C2329.12 478.958 2235.65 519.107 2073.68 534.008C1904.38 549.583 1654.25 516.522 1307.31 583.898C972.717 649.13 596.191 805.793 384.466 1005.21C159.139 1217.61 33.9076 1360.44 0.874274 1157.39Z" fill="url(#paint0_linear_3063_26)"/>
  <defs>
    <linearGradient id="paint0_linear_3063_26" x1="2256.47" y1="972.768" x2="52.1402" y2="289.488" gradientUnits="userSpaceOnUse">
      <stop stop-color="#5D50C6"/>
      <stop offset="1" stop-color="#F85E9F"/>
    </linearGradient>
  </defs>
</svg>
