<svg width="448" height="272" viewBox="0 0 448 272" fill="none" xmlns="http://www.w3.org/2000/svg">
<g clip-path="url(#clip0_3063_27)">
<mask id="mask0_3063_27" style="mask-type:luminance" maskUnits="userSpaceOnUse" x="92" y="11" width="253" height="253">
<path d="M307.971 226.188C357.156 177.003 357.156 97.2572 307.971 48.0717C258.785 -1.11371 179.04 -1.11373 129.855 48.0717C80.6691 97.2572 80.6691 177.003 129.855 226.188C179.04 275.373 258.785 275.373 307.971 226.188Z" fill="white"/>
</mask>
<g mask="url(#mask0_3063_27)">
<path d="M94.1875 216.364L91.9094 218.646L100.646 227.37L102.924 225.089L94.1875 216.364Z" fill="#FACD49"/>
<path d="M91.9038 225.109L94.1851 227.387L102.909 218.65L100.628 216.372L91.9038 225.109Z" fill="#FACD49"/>
<path d="M94.218 239.445L91.9399 241.727L100.676 250.451L102.955 248.17L94.218 239.445Z" fill="#FACD49"/>
<path d="M91.9221 248.177L94.2034 250.455L102.928 241.719L100.646 239.44L91.9221 248.177Z" fill="#FACD49"/>
<path d="M94.2293 260.905L91.9512 263.187L100.688 271.911L102.966 269.63L94.2293 260.905Z" fill="#FACD49"/>
<path d="M91.9472 269.672L94.2285 271.95L102.953 263.214L100.672 260.936L91.9472 269.672Z" fill="#FACD49"/>
<path d="M94.1555 148.012L91.8774 150.293L100.614 159.017L102.892 156.736L94.1555 148.012Z" fill="#FACD49"/>
<path d="M91.8554 156.729L94.1367 159.007L102.861 150.27L100.58 147.992L91.8554 156.729Z" fill="#FACD49"/>
<path d="M94.1558 171.081L91.8777 173.362L100.614 182.087L102.892 179.805L94.1558 171.081Z" fill="#FACD49"/>
<path d="M91.8789 179.828L94.1602 182.106L102.885 173.37L100.603 171.092L91.8789 179.828Z" fill="#FACD49"/>
<path d="M94.179 192.545L91.9009 194.826L100.637 203.551L102.916 201.269L94.179 192.545Z" fill="#FACD49"/>
<path d="M91.8908 201.291L94.1721 203.569L102.896 194.833L100.615 192.555L91.8908 201.291Z" fill="#FACD49"/>
<path d="M94.1072 79.6152L91.8291 81.8965L100.566 90.6208L102.844 88.3396L94.1072 79.6152Z" fill="#FACD49"/>
<path d="M91.8183 88.3655L94.0996 90.6436L102.824 81.907L100.543 79.6289L91.8183 88.3655Z" fill="#FACD49"/>
<path d="M94.107 102.727L91.8289 105.008L100.565 113.732L102.844 111.451L94.107 102.727Z" fill="#FACD49"/>
<path d="M91.8484 111.447L94.1296 113.725L102.854 104.988L100.573 102.71L91.8484 111.447Z" fill="#FACD49"/>
<path d="M94.1304 124.191L91.8523 126.473L100.589 135.197L102.867 132.916L94.1304 124.191Z" fill="#FACD49"/>
<path d="M91.8613 132.91L94.1426 135.188L102.867 126.452L100.586 124.174L91.8613 132.91Z" fill="#FACD49"/>
<path d="M94.0457 11.2675L91.7676 13.5488L100.504 22.2732L102.782 19.9919L94.0457 11.2675Z" fill="#FACD49"/>
<path d="M91.7758 19.9973L94.0571 22.2754L102.781 13.5388L100.5 11.2607L91.7758 19.9973Z" fill="#FACD49"/>
<path d="M94.0767 34.332L91.7986 36.6133L100.535 45.3376L102.813 43.0564L94.0767 34.332Z" fill="#FACD49"/>
<path d="M91.7939 43.0666L94.0752 45.3447L102.8 36.6082L100.518 34.3301L91.7939 43.0666Z" fill="#FACD49"/>
<path d="M94.0821 55.7959L91.804 58.0771L100.541 66.8015L102.819 64.5202L94.0821 55.7959Z" fill="#FACD49"/>
<path d="M91.8071 64.5481L94.0884 66.8262L102.813 58.0896L100.531 55.8115L91.8071 64.5481Z" fill="#FACD49"/>
<path d="M118.461 216.363L116.183 218.645L124.92 227.369L127.198 225.088L118.461 216.363Z" fill="#FACD49"/>
<path d="M116.17 225.086L118.451 227.364L127.176 218.628L124.894 216.35L116.17 225.086Z" fill="#FACD49"/>
<path d="M141.421 216.339L139.143 218.62L147.879 227.344L150.157 225.063L141.421 216.339Z" fill="#FACD49"/>
<path d="M139.14 225.067L141.421 227.345L150.145 218.608L147.864 216.33L139.14 225.067Z" fill="#FACD49"/>
<path d="M164.349 216.321L162.071 218.603L170.807 227.327L173.085 225.046L164.349 216.321Z" fill="#FACD49"/>
<path d="M162.096 225.062L164.377 227.34L173.102 218.603L170.821 216.325L162.096 225.062Z" fill="#FACD49"/>
<path d="M187.307 216.325L185.029 218.606L193.765 227.331L196.043 225.05L187.307 216.325Z" fill="#FACD49"/>
<path d="M185.004 225.042L187.285 227.32L196.01 218.584L193.728 216.306L185.004 225.042Z" fill="#FACD49"/>
<path d="M210.236 216.289L207.958 218.57L216.694 227.295L218.972 225.013L210.236 216.289Z" fill="#FACD49"/>
<path d="M207.962 225.035L210.243 227.313L218.967 218.577L216.686 216.299L207.962 225.035Z" fill="#FACD49"/>
<path d="M118.493 239.409L116.215 241.69L124.951 250.415L127.229 248.134L118.493 239.409Z" fill="#FACD49"/>
<path d="M116.188 248.172L118.47 250.45L127.194 241.714L124.913 239.436L116.188 248.172Z" fill="#FACD49"/>
<path d="M141.42 239.408L139.142 241.689L147.879 250.414L150.157 248.133L141.42 239.408Z" fill="#FACD49"/>
<path d="M139.126 248.166L141.408 250.444L150.132 241.708L147.851 239.43L139.126 248.166Z" fill="#FACD49"/>
<path d="M164.379 239.421L162.101 241.702L170.837 250.427L173.115 248.145L164.379 239.421Z" fill="#FACD49"/>
<path d="M162.096 248.148L164.377 250.426L173.102 241.689L170.821 239.411L162.096 248.148Z" fill="#FACD49"/>
<path d="M187.32 239.39L185.042 241.671L193.779 250.395L196.057 248.114L187.32 239.39Z" fill="#FACD49"/>
<path d="M185.022 248.112L187.304 250.39L196.028 241.653L193.747 239.375L185.022 248.112Z" fill="#FACD49"/>
<path d="M210.267 239.389L207.989 241.67L216.726 250.394L219.004 248.113L210.267 239.389Z" fill="#FACD49"/>
<path d="M207.962 248.105L210.243 250.383L218.967 241.646L216.686 239.368L207.962 248.105Z" fill="#FACD49"/>
<path d="M118.498 260.892L116.22 263.173L124.957 271.897L127.235 269.616L118.498 260.892Z" fill="#FACD49"/>
<path d="M116.219 269.636L118.5 271.914L127.224 263.178L124.943 260.899L116.219 269.636Z" fill="#FACD49"/>
<path d="M141.444 260.891L139.166 263.172L147.903 271.896L150.181 269.615L141.444 260.891Z" fill="#FACD49"/>
<path d="M139.14 269.63L141.421 271.908L150.145 263.172L147.864 260.894L139.14 269.63Z" fill="#FACD49"/>
<path d="M164.385 260.885L162.107 263.166L170.843 271.89L173.121 269.609L164.385 260.885Z" fill="#FACD49"/>
<path d="M162.109 269.612L164.39 271.89L173.114 263.153L170.833 260.875L162.109 269.612Z" fill="#FACD49"/>
<path d="M187.331 260.866L185.053 263.147L193.79 271.872L196.068 269.591L187.331 260.866Z" fill="#FACD49"/>
<path d="M185.047 269.606L187.329 271.884L196.053 263.147L193.772 260.869L185.047 269.606Z" fill="#FACD49"/>
<path d="M210.272 260.853L207.994 263.134L216.73 271.858L219.009 269.577L210.272 260.853Z" fill="#FACD49"/>
<path d="M207.974 269.569L210.255 271.847L218.979 263.11L216.698 260.832L207.974 269.569Z" fill="#FACD49"/>
<path d="M118.413 147.991L116.135 150.272L124.872 158.997L127.15 156.716L118.413 147.991Z" fill="#FACD49"/>
<path d="M116.141 156.722L118.422 159L127.146 150.263L124.865 147.985L116.141 156.722Z" fill="#FACD49"/>
<path d="M141.372 147.96L139.094 150.241L147.831 158.966L150.109 156.684L141.372 147.96Z" fill="#FACD49"/>
<path d="M139.084 156.702L141.365 158.98L150.09 150.244L147.809 147.966L139.084 156.702Z" fill="#FACD49"/>
<path d="M164.317 147.959L162.039 150.24L170.776 158.965L173.054 156.683L164.317 147.959Z" fill="#FACD49"/>
<path d="M162.022 156.697L164.304 158.975L173.028 150.238L170.747 147.96L162.022 156.697Z" fill="#FACD49"/>
<path d="M187.246 147.923L184.968 150.204L193.705 158.928L195.983 156.647L187.246 147.923Z" fill="#FACD49"/>
<path d="M184.98 156.672L187.261 158.95L195.985 150.214L193.704 147.936L184.98 156.672Z" fill="#FACD49"/>
<path d="M210.193 147.922L207.915 150.203L216.651 158.927L218.929 156.646L210.193 147.922Z" fill="#FACD49"/>
<path d="M207.919 156.666L210.201 158.944L218.925 150.208L216.644 147.93L207.919 156.666Z" fill="#FACD49"/>
<path d="M118.443 171.072L116.165 173.354L124.902 182.078L127.18 179.797L118.443 171.072Z" fill="#FACD49"/>
<path d="M116.158 179.79L118.439 182.068L127.164 173.332L124.882 171.054L116.158 179.79Z" fill="#FACD49"/>
<path d="M141.384 171.042L139.106 173.323L147.843 182.048L150.121 179.766L141.384 171.042Z" fill="#FACD49"/>
<path d="M139.102 179.772L141.383 182.05L150.107 173.313L147.826 171.035L139.102 179.772Z" fill="#FACD49"/>
<path d="M164.331 171.022L162.052 173.304L170.789 182.028L173.067 179.747L164.331 171.022Z" fill="#FACD49"/>
<path d="M162.041 179.765L164.322 182.043L173.046 173.306L170.765 171.028L162.041 179.765Z" fill="#FACD49"/>
<path d="M187.277 171.021L184.999 173.303L193.735 182.027L196.013 179.746L187.277 171.021Z" fill="#FACD49"/>
<path d="M184.98 179.758L187.261 182.036L195.986 173.3L193.705 171.021L184.98 179.758Z" fill="#FACD49"/>
<path d="M210.205 171.003L207.927 173.284L216.663 182.009L218.941 179.727L210.205 171.003Z" fill="#FACD49"/>
<path d="M207.936 179.752L210.218 182.03L218.942 173.294L216.661 171.016L207.936 179.752Z" fill="#FACD49"/>
<path d="M118.449 192.555L116.17 194.836L124.907 203.56L127.185 201.279L118.449 192.555Z" fill="#FACD49"/>
<path d="M116.17 201.254L118.451 203.532L127.176 194.796L124.894 192.518L116.17 201.254Z" fill="#FACD49"/>
<path d="M141.395 192.519L139.117 194.8L147.853 203.524L150.132 201.243L141.395 192.519Z" fill="#FACD49"/>
<path d="M139.127 201.248L141.408 203.526L150.133 194.79L147.851 192.512L139.127 201.248Z" fill="#FACD49"/>
<path d="M164.353 192.504L162.075 194.785L170.811 203.51L173.089 201.228L164.353 192.504Z" fill="#FACD49"/>
<path d="M162.053 201.229L164.334 203.507L173.058 194.77L170.777 192.492L162.053 201.229Z" fill="#FACD49"/>
<path d="M187.282 192.486L185.004 194.768L193.74 203.492L196.019 201.211L187.282 192.486Z" fill="#FACD49"/>
<path d="M184.992 201.223L187.273 203.501L195.998 194.764L193.717 192.486L184.992 201.223Z" fill="#FACD49"/>
<path d="M210.228 192.468L207.95 194.749L216.686 203.473L218.965 201.192L210.228 192.468Z" fill="#FACD49"/>
<path d="M207.949 201.216L210.23 203.494L218.954 194.758L216.673 192.479L207.949 201.216Z" fill="#FACD49"/>
<path d="M118.382 79.6133L116.104 81.8945L124.841 90.6189L127.119 88.3376L118.382 79.6133Z" fill="#FACD49"/>
<path d="M116.103 88.341L118.384 90.6191L127.109 81.8826L124.827 79.6045L116.103 88.341Z" fill="#FACD49"/>
<path d="M141.311 79.6123L139.033 81.8936L147.77 90.6179L150.048 88.3366L141.311 79.6123Z" fill="#FACD49"/>
<path d="M139.024 88.3352L141.305 90.6133L150.03 81.8767L147.748 79.5986L139.024 88.3352Z" fill="#FACD49"/>
<path d="M164.258 79.5937L161.979 81.875L170.716 90.5994L172.994 88.3181L164.258 79.5937Z" fill="#FACD49"/>
<path d="M161.982 88.3283L164.263 90.6064L172.987 81.8699L170.706 79.5918L161.982 88.3283Z" fill="#FACD49"/>
<path d="M187.197 79.5625L184.919 81.8438L193.656 90.5681L195.934 88.2868L187.197 79.5625Z" fill="#FACD49"/>
<path d="M184.907 88.3098L187.188 90.5879L195.912 81.8513L193.631 79.5733L184.907 88.3098Z" fill="#FACD49"/>
<path d="M210.157 79.5566L207.878 81.8379L216.615 90.5622L218.893 88.281L210.157 79.5566Z" fill="#FACD49"/>
<path d="M207.858 88.2912L210.139 90.5693L218.864 81.8328L216.582 79.5547L207.858 88.2912Z" fill="#FACD49"/>
<path d="M118.396 102.695L116.117 104.977L124.854 113.701L127.132 111.42L118.396 102.695Z" fill="#FACD49"/>
<path d="M116.103 111.428L118.384 113.706L127.109 104.97L124.827 102.691L116.103 111.428Z" fill="#FACD49"/>
<path d="M141.341 102.677L139.063 104.958L147.799 113.682L150.077 111.401L141.341 102.677Z" fill="#FACD49"/>
<path d="M139.06 111.422L141.341 113.7L150.065 104.964L147.784 102.686L139.06 111.422Z" fill="#FACD49"/>
<path d="M164.269 102.676L161.991 104.957L170.728 113.681L173.006 111.4L164.269 102.676Z" fill="#FACD49"/>
<path d="M161.98 111.416L164.262 113.694L172.986 104.958L170.705 102.68L161.98 111.416Z" fill="#FACD49"/>
<path d="M187.228 102.627L184.95 104.908L193.687 113.633L195.965 111.351L187.228 102.627Z" fill="#FACD49"/>
<path d="M184.925 111.379L187.206 113.657L195.93 104.921L193.649 102.643L184.925 111.379Z" fill="#FACD49"/>
<path d="M210.157 102.608L207.878 104.89L216.615 113.614L218.893 111.333L210.157 102.608Z" fill="#FACD49"/>
<path d="M207.882 111.372L210.164 113.65L218.888 104.914L216.607 102.636L207.882 111.372Z" fill="#FACD49"/>
<path d="M118.406 124.172L116.127 126.453L124.864 135.177L127.142 132.896L118.406 124.172Z" fill="#FACD49"/>
<path d="M116.128 132.905L118.409 135.183L127.134 126.446L124.852 124.168L116.128 132.905Z" fill="#FACD49"/>
<path d="M141.346 124.141L139.068 126.422L147.805 135.146L150.083 132.865L141.346 124.141Z" fill="#FACD49"/>
<path d="M139.054 132.885L141.335 135.163L150.06 126.427L147.779 124.148L139.054 132.885Z" fill="#FACD49"/>
<path d="M164.293 124.122L162.015 126.403L170.751 135.128L173.03 132.846L164.293 124.122Z" fill="#FACD49"/>
<path d="M161.994 132.879L164.275 135.157L172.999 126.421L170.718 124.143L161.994 132.879Z" fill="#FACD49"/>
<path d="M187.221 124.103L184.943 126.385L193.68 135.109L195.958 132.828L187.221 124.103Z" fill="#FACD49"/>
<path d="M184.968 132.855L187.25 135.133L195.974 126.396L193.693 124.118L184.968 132.855Z" fill="#FACD49"/>
<path d="M210.18 124.09L207.902 126.371L216.638 135.095L218.916 132.814L210.18 124.09Z" fill="#FACD49"/>
<path d="M207.894 132.836L210.176 135.114L218.9 126.378L216.619 124.1L207.894 132.836Z" fill="#FACD49"/>
<path d="M118.321 11.247L116.043 13.5283L124.78 22.2527L127.058 19.9714L118.321 11.247Z" fill="#FACD49"/>
<path d="M116.042 19.9905L118.324 22.2686L127.048 13.532L124.767 11.2539L116.042 19.9905Z" fill="#FACD49"/>
<path d="M141.261 11.2158L138.983 13.4971L147.72 22.2214L149.998 19.9401L141.261 11.2158Z" fill="#FACD49"/>
<path d="M138.987 19.9709L141.268 22.249L149.992 13.5125L147.711 11.2344L138.987 19.9709Z" fill="#FACD49"/>
<path d="M164.221 11.2099L161.943 13.4912L170.679 22.2156L172.957 19.9343L164.221 11.2099Z" fill="#FACD49"/>
<path d="M161.938 19.9524L164.219 22.2305L172.944 13.4939L170.662 11.2158L161.938 19.9524Z" fill="#FACD49"/>
<path d="M187.166 11.209L184.888 13.4902L193.625 22.2146L195.903 19.9333L187.166 11.209Z" fill="#FACD49"/>
<path d="M184.895 19.9289L187.176 22.207L195.9 13.4705L193.619 11.1924L184.895 19.9289Z" fill="#FACD49"/>
<path d="M210.095 11.1904L207.817 13.4717L216.553 22.196L218.832 19.9148L210.095 11.1904Z" fill="#FACD49"/>
<path d="M207.834 19.9221L210.115 22.2002L218.84 13.4636L216.558 11.1856L207.834 19.9221Z" fill="#FACD49"/>
<path d="M118.334 34.3105L116.056 36.5918L124.792 45.3162L127.07 43.0349L118.334 34.3105Z" fill="#FACD49"/>
<path d="M116.061 43.0588L118.342 45.3369L127.066 36.6004L124.785 34.3223L116.061 43.0588Z" fill="#FACD49"/>
<path d="M141.28 34.3095L139.002 36.5908L147.738 45.3152L150.017 43.0339L141.28 34.3095Z" fill="#FACD49"/>
<path d="M139.018 43.053L141.299 45.3311L150.023 36.5945L147.742 34.3164L139.018 43.053Z" fill="#FACD49"/>
<path d="M164.238 34.2793L161.96 36.5605L170.697 45.2849L172.975 43.0036L164.238 34.2793Z" fill="#FACD49"/>
<path d="M161.943 43.0344L164.224 45.3125L172.949 36.576L170.667 34.2979L161.943 43.0344Z" fill="#FACD49"/>
<path d="M187.179 34.2724L184.901 36.5537L193.638 45.2781L195.916 42.9968L187.179 34.2724Z" fill="#FACD49"/>
<path d="M184.895 43.0149L187.176 45.293L195.9 36.5564L193.619 34.2783L184.895 43.0149Z" fill="#FACD49"/>
<path d="M210.125 34.2715L207.847 36.5527L216.584 45.2771L218.862 42.9958L210.125 34.2715Z" fill="#FACD49"/>
<path d="M207.852 43.008L210.133 45.2861L218.858 36.5496L216.576 34.2715L207.852 43.008Z" fill="#FACD49"/>
<path d="M118.357 55.7929L116.079 58.0742L124.816 66.7986L127.094 64.5173L118.357 55.7929Z" fill="#FACD49"/>
<path d="M116.073 64.5227L118.354 66.8008L127.078 58.0642L124.797 55.7861L116.073 64.5227Z" fill="#FACD49"/>
<path d="M141.303 55.7734L139.025 58.0547L147.761 66.779L150.04 64.4978L141.303 55.7734Z" fill="#FACD49"/>
<path d="M139.03 64.5158L141.311 66.7939L150.035 58.0574L147.754 55.7793L139.03 64.5158Z" fill="#FACD49"/>
<path d="M164.231 55.7549L161.953 58.0361L170.69 66.7605L172.968 64.4792L164.231 55.7549Z" fill="#FACD49"/>
<path d="M161.968 64.51L164.25 66.7881L172.974 58.0515L170.693 55.7734L161.968 64.51Z" fill="#FACD49"/>
<path d="M187.189 55.7421L184.911 58.0234L193.648 66.7478L195.926 64.4665L187.189 55.7421Z" fill="#FACD49"/>
<path d="M184.894 64.4914L187.176 66.7695L195.9 58.033L193.619 55.7549L184.894 64.4914Z" fill="#FACD49"/>
<path d="M210.131 55.7353L207.853 58.0166L216.589 66.741L218.867 64.4597L210.131 55.7353Z" fill="#FACD49"/>
<path d="M207.864 64.4543L210.146 66.7324L218.87 57.9959L216.589 55.7178L207.864 64.4543Z" fill="#FACD49"/>
<path d="M230.906 216.279L228.628 218.561L237.364 227.285L239.643 225.004L230.906 216.279Z" fill="#FACD49"/>
<path d="M228.624 225.019L230.905 227.297L239.63 218.56L237.348 216.282L228.624 225.019Z" fill="#FACD49"/>
<path d="M253.852 216.261L251.574 218.542L260.311 227.266L262.589 224.985L253.852 216.261Z" fill="#FACD49"/>
<path d="M251.581 225.012L253.863 227.29L262.587 218.553L260.306 216.275L251.581 225.012Z" fill="#FACD49"/>
<path d="M276.824 216.26L274.546 218.541L283.282 227.265L285.56 224.984L276.824 216.26Z" fill="#FACD49"/>
<path d="M274.52 224.981L276.801 227.259L285.526 218.522L283.244 216.244L274.52 224.981Z" fill="#FACD49"/>
<path d="M299.751 216.242L297.473 218.523L306.21 227.248L308.488 224.967L299.751 216.242Z" fill="#FACD49"/>
<path d="M297.458 224.975L299.74 227.253L308.464 218.516L306.183 216.238L297.458 224.975Z" fill="#FACD49"/>
<path d="M322.698 216.205L320.419 218.486L329.156 227.211L331.434 224.929L322.698 216.205Z" fill="#FACD49"/>
<path d="M320.434 224.968L322.715 227.246L331.439 218.51L329.158 216.231L320.434 224.968Z" fill="#FACD49"/>
<path d="M230.937 239.361L228.658 241.643L237.395 250.367L239.673 248.086L230.937 239.361Z" fill="#FACD49"/>
<path d="M228.642 248.106L230.924 250.384L239.648 241.647L237.367 239.369L228.642 248.106Z" fill="#FACD49"/>
<path d="M253.864 239.343L251.586 241.624L260.322 250.348L262.601 248.067L253.864 239.343Z" fill="#FACD49"/>
<path d="M251.58 248.099L253.862 250.377L262.586 241.64L260.305 239.362L251.58 248.099Z" fill="#FACD49"/>
<path d="M276.823 239.312L274.545 241.593L283.282 250.317L285.56 248.036L276.823 239.312Z" fill="#FACD49"/>
<path d="M274.525 248.063L276.806 250.341L285.531 241.604L283.249 239.326L274.525 248.063Z" fill="#FACD49"/>
<path d="M299.781 239.306L297.503 241.587L306.239 250.311L308.518 248.03L299.781 239.306Z" fill="#FACD49"/>
<path d="M297.494 248.043L299.775 250.321L308.5 241.585L306.218 239.307L297.494 248.043Z" fill="#FACD49"/>
<path d="M322.71 239.305L320.432 241.586L329.168 250.31L331.446 248.029L322.71 239.305Z" fill="#FACD49"/>
<path d="M320.433 248.037L322.714 250.315L331.438 241.579L329.157 239.301L320.433 248.037Z" fill="#FACD49"/>
<path d="M230.941 260.843L228.663 263.124L237.4 271.848L239.678 269.567L230.941 260.843Z" fill="#FACD49"/>
<path d="M228.654 269.569L230.936 271.847L239.66 263.11L237.379 260.832L228.654 269.569Z" fill="#FACD49"/>
<path d="M253.888 260.807L251.61 263.088L260.346 271.812L262.624 269.531L253.888 260.807Z" fill="#FACD49"/>
<path d="M251.594 269.562L253.875 271.84L262.599 263.103L260.318 260.825L251.594 269.562Z" fill="#FACD49"/>
<path d="M276.834 260.77L274.556 263.052L283.292 271.776L285.57 269.495L276.834 260.77Z" fill="#FACD49"/>
<path d="M274.568 269.538L276.85 271.816L285.574 263.08L283.293 260.802L274.568 269.538Z" fill="#FACD49"/>
<path d="M299.774 260.758L297.496 263.039L306.233 271.763L308.511 269.482L299.774 260.758Z" fill="#FACD49"/>
<path d="M297.494 269.521L299.775 271.799L308.5 263.062L306.218 260.784L297.494 269.521Z" fill="#FACD49"/>
<path d="M322.733 260.769L320.455 263.05L329.191 271.774L331.469 269.493L322.733 260.769Z" fill="#FACD49"/>
<path d="M320.428 269.501L322.709 271.779L331.433 263.043L329.152 260.765L320.428 269.501Z" fill="#FACD49"/>
<path d="M230.875 147.884L228.597 150.165L237.333 158.889L239.612 156.608L230.875 147.884Z" fill="#FACD49"/>
<path d="M228.587 156.655L230.868 158.934L239.593 150.197L237.311 147.919L228.587 156.655Z" fill="#FACD49"/>
<path d="M253.816 147.895L251.538 150.177L260.275 158.901L262.553 156.62L253.816 147.895Z" fill="#FACD49"/>
<path d="M251.539 156.619L253.821 158.897L262.545 150.161L260.264 147.883L251.539 156.619Z" fill="#FACD49"/>
<path d="M276.762 147.877L274.484 150.158L283.221 158.883L285.499 156.601L276.762 147.877Z" fill="#FACD49"/>
<path d="M274.459 156.631L276.741 158.909L285.465 150.173L283.184 147.895L274.459 156.631Z" fill="#FACD49"/>
<path d="M299.69 147.858L297.412 150.14L306.148 158.864L308.426 156.583L299.69 147.858Z" fill="#FACD49"/>
<path d="M297.416 156.607L299.697 158.885L308.421 150.148L306.14 147.87L297.416 156.607Z" fill="#FACD49"/>
<path d="M322.649 147.845L320.371 150.126L329.108 158.85L331.386 156.569L322.649 147.845Z" fill="#FACD49"/>
<path d="M320.361 156.588L322.642 158.866L331.366 150.13L329.085 147.852L320.361 156.588Z" fill="#FACD49"/>
<path d="M230.875 170.978L228.597 173.259L237.334 181.983L239.612 179.702L230.875 170.978Z" fill="#FACD49"/>
<path d="M228.6 179.737L230.881 182.015L239.606 173.278L237.324 171L228.6 179.737Z" fill="#FACD49"/>
<path d="M253.833 170.965L251.555 173.246L260.292 181.97L262.57 179.689L253.833 170.965Z" fill="#FACD49"/>
<path d="M251.543 179.719L253.825 181.997L262.549 173.261L260.268 170.982L251.543 179.719Z" fill="#FACD49"/>
<path d="M276.774 170.958L274.496 173.239L283.232 181.964L285.51 179.682L276.774 170.958Z" fill="#FACD49"/>
<path d="M274.495 179.698L276.776 181.977L285.5 173.24L283.219 170.962L274.495 179.698Z" fill="#FACD49"/>
<path d="M299.72 170.939L297.442 173.221L306.179 181.945L308.457 179.664L299.72 170.939Z" fill="#FACD49"/>
<path d="M297.434 179.693L299.715 181.971L308.439 173.234L306.158 170.956L297.434 179.693Z" fill="#FACD49"/>
<path d="M322.662 170.909L320.384 173.19L329.121 181.915L331.399 179.634L322.662 170.909Z" fill="#FACD49"/>
<path d="M320.379 179.656L322.66 181.935L331.384 173.198L329.103 170.92L320.379 179.656Z" fill="#FACD49"/>
<path d="M230.898 192.46L228.62 194.741L237.356 203.466L239.635 201.184L230.898 192.46Z" fill="#FACD49"/>
<path d="M228.594 201.2L230.876 203.479L239.6 194.742L237.319 192.464L228.594 201.2Z" fill="#FACD49"/>
<path d="M253.839 192.429L251.561 194.71L260.298 203.434L262.576 201.153L253.839 192.429Z" fill="#FACD49"/>
<path d="M251.538 201.182L253.819 203.46L262.544 194.723L260.262 192.445L251.538 201.182Z" fill="#FACD49"/>
<path d="M276.798 192.423L274.52 194.704L283.257 203.428L285.535 201.147L276.798 192.423Z" fill="#FACD49"/>
<path d="M274.508 201.163L276.789 203.441L285.513 194.705L283.232 192.427L274.508 201.163Z" fill="#FACD49"/>
<path d="M299.726 192.404L297.448 194.686L306.184 203.41L308.462 201.129L299.726 192.404Z" fill="#FACD49"/>
<path d="M297.446 201.157L299.728 203.436L308.452 194.699L306.171 192.421L297.446 201.157Z" fill="#FACD49"/>
<path d="M322.673 192.386L320.395 194.667L329.131 203.391L331.409 201.11L322.673 192.386Z" fill="#FACD49"/>
<path d="M320.404 201.133L322.685 203.411L331.409 194.675L329.128 192.396L320.404 201.133Z" fill="#FACD49"/>
<path d="M230.827 79.5488L228.549 81.8301L237.285 90.5544L239.563 88.2732L230.827 79.5488Z" fill="#FACD49"/>
<path d="M228.54 88.2756L230.821 90.5537L239.545 81.8172L237.264 79.5391L228.54 88.2756Z" fill="#FACD49"/>
<path d="M253.754 79.5127L251.476 81.7939L260.213 90.5183L262.491 88.237L253.754 79.5127Z" fill="#FACD49"/>
<path d="M251.478 88.2697L253.76 90.5479L262.484 81.8113L260.203 79.5332L251.478 88.2697Z" fill="#FACD49"/>
<path d="M276.714 79.499L274.436 81.7803L283.172 90.5046L285.45 88.2234L276.714 79.499Z" fill="#FACD49"/>
<path d="M274.44 88.2502L276.722 90.5283L285.446 81.7918L283.165 79.5137L274.44 88.2502Z" fill="#FACD49"/>
<path d="M299.659 79.4804L297.381 81.7617L306.118 90.4861L308.396 88.2048L299.659 79.4804Z" fill="#FACD49"/>
<path d="M297.379 88.2434L299.66 90.5215L308.385 81.7849L306.103 79.5068L297.379 88.2434Z" fill="#FACD49"/>
<path d="M322.605 79.4795L320.327 81.7607L329.064 90.4851L331.342 88.2038L322.605 79.4795Z" fill="#FACD49"/>
<path d="M320.3 88.2375L322.581 90.5156L331.305 81.7791L329.024 79.501L320.3 88.2375Z" fill="#FACD49"/>
<path d="M230.839 102.612L228.561 104.894L237.298 113.618L239.576 111.337L230.839 102.612Z" fill="#FACD49"/>
<path d="M228.557 111.362L230.839 113.64L239.563 104.903L237.282 102.625L228.557 111.362Z" fill="#FACD49"/>
<path d="M253.785 102.594L251.507 104.875L260.243 113.599L262.521 111.318L253.785 102.594Z" fill="#FACD49"/>
<path d="M251.514 111.338L253.795 113.616L262.52 104.88L260.238 102.602L251.514 111.338Z" fill="#FACD49"/>
<path d="M276.731 102.593L274.453 104.874L283.19 113.598L285.468 111.317L276.731 102.593Z" fill="#FACD49"/>
<path d="M274.435 111.331L276.717 113.609L285.441 104.873L283.16 102.595L274.435 111.331Z" fill="#FACD49"/>
<path d="M299.672 102.561L297.394 104.843L306.131 113.567L308.409 111.286L299.672 102.561Z" fill="#FACD49"/>
<path d="M297.379 111.313L299.66 113.591L308.385 104.854L306.103 102.576L297.379 111.313Z" fill="#FACD49"/>
<path d="M322.618 102.543L320.34 104.824L329.077 113.549L331.355 111.267L322.618 102.543Z" fill="#FACD49"/>
<path d="M320.335 111.306L322.617 113.584L331.341 104.847L329.06 102.569L320.335 111.306Z" fill="#FACD49"/>
<path d="M230.862 124.077L228.584 126.358L237.32 135.083L239.598 132.801L230.862 124.077Z" fill="#FACD49"/>
<path d="M228.588 132.809L230.869 135.087L239.593 126.35L237.312 124.072L228.588 132.809Z" fill="#FACD49"/>
<path d="M253.809 124.076L251.531 126.357L260.267 135.082L262.545 132.801L253.809 124.076Z" fill="#FACD49"/>
<path d="M251.527 132.802L253.808 135.08L262.532 126.344L260.251 124.065L251.527 132.802Z" fill="#FACD49"/>
<path d="M276.736 124.075L274.458 126.356L283.195 135.081L285.473 132.8L276.736 124.075Z" fill="#FACD49"/>
<path d="M274.447 132.814L276.729 135.092L285.453 126.355L283.172 124.077L274.447 132.814Z" fill="#FACD49"/>
<path d="M299.695 124.026L297.417 126.308L306.154 135.032L308.432 132.751L299.695 124.026Z" fill="#FACD49"/>
<path d="M297.392 132.777L299.673 135.055L308.397 126.318L306.116 124.04L297.392 132.777Z" fill="#FACD49"/>
<path d="M322.624 124.025L320.346 126.307L329.082 135.031L331.361 132.75L322.624 124.025Z" fill="#FACD49"/>
<path d="M320.349 132.77L322.63 135.048L331.355 126.311L329.073 124.033L320.349 132.77Z" fill="#FACD49"/>
<path d="M230.783 11.1826L228.505 13.4639L237.242 22.1882L239.52 19.907L230.783 11.1826Z" fill="#FACD49"/>
<path d="M228.497 19.9241L230.778 22.2021L239.502 13.4656L237.221 11.1875L228.497 19.9241Z" fill="#FACD49"/>
<path d="M253.724 11.1513L251.446 13.4326L260.182 22.157L262.46 19.8757L253.724 11.1513Z" fill="#FACD49"/>
<path d="M251.441 19.8879L253.722 22.166L262.447 13.4295L260.165 11.1514L251.441 19.8879Z" fill="#FACD49"/>
<path d="M276.652 11.1328L274.374 13.4141L283.111 22.1384L285.389 19.8572L276.652 11.1328Z" fill="#FACD49"/>
<path d="M274.38 19.8811L276.661 22.1592L285.385 13.4226L283.104 11.1445L274.38 19.8811Z" fill="#FACD49"/>
<path d="M299.598 11.1142L297.32 13.3955L306.057 22.1199L308.335 19.8386L299.598 11.1142Z" fill="#FACD49"/>
<path d="M297.337 19.8752L299.618 22.1533L308.343 13.4168L306.061 11.1387L297.337 19.8752Z" fill="#FACD49"/>
<path d="M322.57 11.1132L320.292 13.3945L329.028 22.1189L331.306 19.8376L322.57 11.1132Z" fill="#FACD49"/>
<path d="M320.294 19.8264L322.575 22.1045L331.299 13.3679L329.018 11.0898L320.294 19.8264Z" fill="#FACD49"/>
<path d="M230.796 34.247L228.518 36.5283L237.254 45.2527L239.532 42.9714L230.796 34.247Z" fill="#FACD49"/>
<path d="M228.515 42.9944L230.796 45.2725L239.521 36.5359L237.239 34.2578L228.515 42.9944Z" fill="#FACD49"/>
<path d="M253.754 34.2334L251.476 36.5146L260.213 45.239L262.491 42.9577L253.754 34.2334Z" fill="#FACD49"/>
<path d="M251.441 42.9748L253.722 45.2529L262.447 36.5164L260.165 34.2383L251.441 42.9748Z" fill="#FACD49"/>
<path d="M276.665 34.1972L274.387 36.4785L283.124 45.2029L285.402 42.9216L276.665 34.1972Z" fill="#FACD49"/>
<path d="M274.399 42.969L276.68 45.2471L285.404 36.5105L283.123 34.2324L274.399 42.969Z" fill="#FACD49"/>
<path d="M299.611 34.1963L297.333 36.4775L306.07 45.2019L308.348 42.9206L299.611 34.1963Z" fill="#FACD49"/>
<path d="M297.355 42.9446L299.636 45.2227L308.361 36.4861L306.08 34.208L297.355 42.9446Z" fill="#FACD49"/>
<path d="M322.556 34.1953L320.278 36.4766L329.015 45.2009L331.293 42.9196L322.556 34.1953Z" fill="#FACD49"/>
<path d="M320.275 42.9563L322.557 45.2344L331.281 36.4978L329 34.2197L320.275 42.9563Z" fill="#FACD49"/>
<path d="M230.801 55.7109L228.523 57.9922L237.259 66.7165L239.538 64.4353L230.801 55.7109Z" fill="#FACD49"/>
<path d="M228.528 64.4573L230.809 66.7354L239.533 57.9988L237.252 55.7207L228.528 64.4573Z" fill="#FACD49"/>
<path d="M253.747 55.7099L251.469 57.9912L260.206 66.7156L262.484 64.4343L253.747 55.7099Z" fill="#FACD49"/>
<path d="M251.466 64.4504L253.748 66.7285L262.472 57.992L260.191 55.7139L251.466 64.4504Z" fill="#FACD49"/>
<path d="M276.689 55.6611L274.41 57.9424L283.147 66.6667L285.425 64.3855L276.689 55.6611Z" fill="#FACD49"/>
<path d="M274.429 64.4143L276.71 66.6924L285.435 57.9558L283.153 55.6777L274.429 64.4143Z" fill="#FACD49"/>
<path d="M299.635 55.6601L297.356 57.9414L306.093 66.6658L308.371 64.3845L299.635 55.6601Z" fill="#FACD49"/>
<path d="M297.349 64.4075L299.63 66.6855L308.355 57.949L306.073 55.6709L297.349 64.4075Z" fill="#FACD49"/>
<path d="M322.58 55.6592L320.302 57.9404L329.039 66.6648L331.317 64.3835L322.58 55.6592Z" fill="#FACD49"/>
<path d="M320.288 64.4192L322.569 66.6973L331.294 57.9607L329.012 55.6826L320.288 64.4192Z" fill="#FACD49"/>
<path d="M346.984 216.209L344.706 218.49L353.443 227.215L355.721 224.933L346.984 216.209Z" fill="#FACD49"/>
<path d="M344.687 224.933L346.968 227.211L355.692 218.474L353.411 216.196L344.687 224.933Z" fill="#FACD49"/>
<path d="M346.985 239.285L344.707 241.566L353.444 250.291L355.722 248.009L346.985 239.285Z" fill="#FACD49"/>
<path d="M344.7 248.031L346.981 250.31L355.705 241.573L353.424 239.295L344.7 248.031Z" fill="#FACD49"/>
<path d="M346.99 260.75L344.712 263.031L353.449 271.756L355.727 269.474L346.99 260.75Z" fill="#FACD49"/>
<path d="M344.713 269.495L346.994 271.773L355.718 263.037L353.437 260.759L344.713 269.495Z" fill="#FACD49"/>
<path d="M346.923 147.825L344.645 150.106L353.381 158.831L355.659 156.55L346.923 147.825Z" fill="#FACD49"/>
<path d="M344.626 156.581L346.907 158.859L355.632 150.123L353.351 147.845L344.626 156.581Z" fill="#FACD49"/>
<path d="M346.936 170.906L344.658 173.188L353.395 181.912L355.673 179.631L346.936 170.906Z" fill="#FACD49"/>
<path d="M344.663 179.651L346.944 181.929L355.668 173.192L353.387 170.914L344.663 179.651Z" fill="#FACD49"/>
<path d="M346.959 192.371L344.681 194.652L353.418 203.377L355.696 201.095L346.959 192.371Z" fill="#FACD49"/>
<path d="M344.675 201.114L346.956 203.393L355.68 194.656L353.399 192.378L344.675 201.114Z" fill="#FACD49"/>
<path d="M346.863 79.4589L344.584 81.7402L353.321 90.4646L355.599 88.1833L346.863 79.4589Z" fill="#FACD49"/>
<path d="M344.585 88.2131L346.866 90.4912L355.591 81.7547L353.309 79.4766L344.585 88.2131Z" fill="#FACD49"/>
<path d="M346.875 102.54L344.596 104.821L353.333 113.546L355.611 111.264L346.875 102.54Z" fill="#FACD49"/>
<path d="M344.584 111.299L346.865 113.577L355.59 104.841L353.308 102.563L344.584 111.299Z" fill="#FACD49"/>
<path d="M346.899 124.005L344.621 126.286L353.357 135.01L355.636 132.729L346.899 124.005Z" fill="#FACD49"/>
<path d="M344.597 132.764L346.878 135.042L355.603 126.305L353.321 124.027L344.597 132.764Z" fill="#FACD49"/>
<path d="M346.826 11.0937L344.548 13.375L353.285 22.0994L355.563 19.8181L346.826 11.0937Z" fill="#FACD49"/>
<path d="M344.542 19.8381L346.823 22.1162L355.547 13.3797L353.266 11.1016L344.542 19.8381Z" fill="#FACD49"/>
<path d="M346.857 34.1748L344.579 36.4561L353.316 45.1804L355.594 42.8991L346.857 34.1748Z" fill="#FACD49"/>
<path d="M344.56 42.9065L346.841 45.1846L355.565 36.448L353.284 34.1699L344.56 42.9065Z" fill="#FACD49"/>
<path d="M346.862 55.6396L344.584 57.9209L353.321 66.6453L355.599 64.364L346.862 55.6396Z" fill="#FACD49"/>
<path d="M344.572 64.3703L346.853 66.6484L355.577 57.9119L353.296 55.6338L344.572 64.3703Z" fill="#FACD49"/>
</g>
<path d="M125.061 0H120.456V11.5142H125.061V0Z" fill="#FF5722"/>
<path d="M125.061 0H120.456V11.5142H125.061V0Z" fill="#FF5722"/>
<path d="M125.061 190.001H120.456V201.515H125.061V190.001Z" fill="#FF5722"/>
<path d="M33.5147 98.4551H22.0005V103.061H33.5147V98.4551Z" fill="#FF5722"/>
<path d="M33.5147 98.4551H22.0005V103.061H33.5147V98.4551Z" fill="#FF5722"/>
<path d="M223.516 98.4551H212.001V103.061H223.516V98.4551Z" fill="#FF5722"/>
<path d="M53.1544 27.883L49.8977 31.1396L58.0394 39.2814L61.2961 36.0247L53.1544 27.883Z" fill="#FF5722"/>
<path d="M53.1544 27.883L49.8977 31.1396L58.0394 39.2814L61.2961 36.0247L53.1544 27.883Z" fill="#FF5722"/>
<path d="M187.487 162.244L184.231 165.501L192.372 173.643L195.629 170.386L187.487 162.244Z" fill="#FF5722"/>
<path d="M58.0292 162.228L49.8889 170.371L53.1462 173.627L61.2865 165.484L58.0292 162.228Z" fill="#FF5722"/>
<path d="M58.0292 162.228L49.8889 170.371L53.1462 173.627L61.2865 165.484L58.0292 162.228Z" fill="#FF5722"/>
<path d="M192.375 27.8783L184.235 36.0215L187.492 39.2776L195.633 31.1344L192.375 27.8783Z" fill="#FF5722"/>
<path d="M102.043 2.12837L97.5588 3.17773L100.182 14.3891L104.667 13.3397L102.043 2.12837Z" fill="#FF5722"/>
<path d="M102.043 2.12837L97.5588 3.17773L100.182 14.3891L104.667 13.3397L102.043 2.12837Z" fill="#FF5722"/>
<path d="M145.341 187.139L140.856 188.188L143.48 199.4L147.964 198.35L145.341 187.139Z" fill="#FF5722"/>
<path d="M35.3474 118.848L24.137 121.476L25.1879 125.96L36.3983 123.332L35.3474 118.848Z" fill="#FF5722"/>
<path d="M35.3474 118.848L24.137 121.476L25.1879 125.96L36.3983 123.332L35.3474 118.848Z" fill="#FF5722"/>
<path d="M220.345 75.566L209.134 78.1914L210.184 82.6757L221.395 80.0504L220.345 75.566Z" fill="#FF5722"/>
<path d="M38.3727 45.6656L35.9443 49.5791L45.728 55.65L48.1564 51.7365L38.3727 45.6656Z" fill="#FF5722"/>
<path d="M38.3727 45.6656L35.9443 49.5791L45.728 55.65L48.1564 51.7365L38.3727 45.6656Z" fill="#FF5722"/>
<path d="M199.798 145.852L197.369 149.766L207.153 155.836L209.581 151.923L199.798 145.852Z" fill="#FF5722"/>
<path d="M73.7552 175.359L67.6826 185.142L71.5957 187.571L77.6682 177.788L73.7552 175.359Z" fill="#FF5722"/>
<path d="M73.7552 175.359L67.6826 185.142L71.5957 187.571L77.6682 177.788L73.7552 175.359Z" fill="#FF5722"/>
<path d="M173.921 13.9273L167.849 23.71L171.762 26.139L177.834 16.3564L173.921 13.9273Z" fill="#FF5722"/>
<path d="M87.7366 6.24221L83.4558 7.94141L87.7038 18.6433L91.9846 16.9441L87.7366 6.24221Z" fill="#FF5722"/>
<path d="M87.7366 6.24221L83.4558 7.94141L87.7038 18.6433L91.9846 16.9441L87.7366 6.24221Z" fill="#FF5722"/>
<path d="M157.817 182.855L153.536 184.554L157.784 195.256L162.065 193.556L157.817 182.855Z" fill="#FF5722"/>
<path d="M38.956 131.525L28.2542 135.773L29.9533 140.054L40.6552 135.806L38.956 131.525Z" fill="#FF5722"/>
<path d="M38.956 131.525L28.2542 135.773L29.9533 140.054L40.6552 135.806L38.956 131.525Z" fill="#FF5722"/>
<path d="M215.569 61.4444L204.867 65.6924L206.566 69.9731L217.268 65.7252L215.569 61.4444Z" fill="#FF5722"/>
<path d="M31.1763 58.6986L29.3501 62.9268L39.9205 67.4922L41.7466 63.2641L31.1763 58.6986Z" fill="#FF5722"/>
<path d="M31.1763 58.6986L29.3501 62.9268L39.9205 67.4922L41.7466 63.2641L31.1763 58.6986Z" fill="#FF5722"/>
<path d="M205.623 134.038L203.797 138.267L214.367 142.832L216.193 138.604L205.623 134.038Z" fill="#FF5722"/>
<path d="M85.2819 181.792L80.7183 192.363L84.9467 194.189L89.5103 183.618L85.2819 181.792Z" fill="#FF5722"/>
<path d="M85.2819 181.792L80.7183 192.363L84.9467 194.189L89.5103 183.618L85.2819 181.792Z" fill="#FF5722"/>
<path d="M160.581 7.34387L156.018 17.915L160.246 19.7405L164.81 9.16932L160.581 7.34387Z" fill="#FF5722"/>
<path d="M67.1243 16.7266L63.3433 19.3564L69.9179 28.809L73.6989 26.1792L67.1243 16.7266Z" fill="#FF5722"/>
<path d="M67.1243 16.7266L63.3433 19.3564L69.9179 28.809L73.6989 26.1792L67.1243 16.7266Z" fill="#FF5722"/>
<path d="M175.615 172.698L171.833 175.328L178.408 184.781L182.189 182.151L175.615 172.698Z" fill="#FF5722"/>
<path d="M48.1855 149.818L38.7329 156.393L41.3628 160.174L50.8153 153.599L48.1855 149.818Z" fill="#FF5722"/>
<path d="M48.1855 149.818L38.7329 156.393L41.3628 160.174L50.8153 153.599L48.1855 149.818Z" fill="#FF5722"/>
<path d="M204.17 41.3512L194.717 47.9258L197.347 51.7068L206.8 45.1322L204.17 41.3512Z" fill="#FF5722"/>
<path d="M23.9927 80.6768L23.1787 85.21L34.5116 87.245L35.3256 82.7118L23.9927 80.6768Z" fill="#FF5722"/>
<path d="M23.9927 80.6768L23.1787 85.21L34.5116 87.245L35.3256 82.7118L23.9927 80.6768Z" fill="#FF5722"/>
<path d="M211.018 114.268L210.204 118.801L221.537 120.836L222.351 116.303L211.018 114.268Z" fill="#FF5722"/>
<path d="M104.731 188.187L102.698 199.521L107.232 200.334L109.265 189L104.731 188.187Z" fill="#FF5722"/>
<path d="M104.731 188.187L102.698 199.521L107.232 200.334L109.265 189L104.731 188.187Z" fill="#FF5722"/>
<path d="M138.294 1.17163L136.261 12.5049L140.794 13.3181L142.827 1.98485L138.294 1.17163Z" fill="#FF5722"/>
</g>
<defs>
<clipPath id="clip0_3063_27">
<rect width="447.511" height="272" fill="white"/>
</clipPath>
</defs>
</svg>
